<svg xmlns="http://www.w3.org/2000/svg" version="1.1" xmlns:xlink="http://www.w3.org/1999/xlink" xmlns:svgjs="http://svgjs.com/svgjs" width="1440" height="1000" preserveAspectRatio="none" viewBox="0 0 1440 1000"><g mask="url(&quot;#SvgjsMask1027&quot;)" fill="none"><rect width="1440" height="1000" x="0" y="0" fill="rgba(10, 118, 201, 1)"></rect><path d="M1512 1000L0 1000 L0 536.64Q-2.22 462.42, 72 460.2Q117.95 386.15, 192 432.11Q219.02 387.13, 264 414.16Q315.6 393.76, 336 445.37Q426.18 415.55, 456 505.72Q466.98 444.7, 528 455.68Q553.26 408.94, 600 434.2Q695.51 409.71, 720 505.22Q745.1 458.32, 792 483.41Q843.64 415.05, 912 466.69Q978.61 461.29, 984 527.9Q1065.68 489.58, 1104 571.25Q1147.97 543.23, 1176 587.2Q1194.77 533.97, 1248 552.74Q1270.62 503.36, 1320 525.98Q1325.76 459.75, 1392 465.51Q1441.76 395.27, 1512 445.03z" fill="#182f5d"></path><path d="M1488 1000L0 1000 L0 715.42Q-0.47 642.95, 72 642.48Q97.37 547.85, 192 573.21Q284.16 593.38, 264 685.54Q256.48 606.01, 336 598.49Q372.26 514.75, 456 551.02Q525.97 500.99, 576 570.95Q666.13 541.08, 696 631.21Q739.64 602.85, 768 646.49Q859.9 666.39, 840 758.3Q798.79 645.09, 912 603.88Q930.65 550.53, 984 569.18Q1028.68 541.87, 1056 586.55Q1165.94 576.5, 1176 686.44Q1254.61 645.05, 1296 723.66Q1301.46 609.12, 1416 614.58Q1441.38 567.97, 1488 593.35z" fill="#25467d"></path><path d="M1488 1000L0 1000 L0 889.95Q10.07 828.02, 72 838.08Q41.32 735.4, 144 704.72Q275.71 764.43, 216 896.15Q202.44 810.59, 288 797.03Q281.9 718.93, 360 712.83Q470.02 750.85, 432 860.87Q511.59 820.46, 552 900.05Q604.16 832.21, 672 884.38Q702.76 795.14, 792 825.91Q779.28 741.19, 864 728.48Q916.11 660.59, 984 712.7Q1050.65 707.36, 1056 774.01Q1161.39 759.4, 1176 864.79Q1217.84 834.63, 1248 876.46Q1286.06 794.52, 1368 832.58Q1442.24 786.82, 1488 861.06z" fill="#356cb1"></path><path d="M1488 1000L0 1000 L0 857.59Q87.35 872.94, 72 960.29Q116.63 932.92, 144 977.55Q215.89 977.44, 216 1049.34Q258.27 971.61, 336 1013.87Q342.96 900.83, 456 907.79Q464.01 843.8, 528 851.81Q593.47 797.27, 648 862.74Q717 859.74, 720 928.73Q729.59 866.32, 792 875.9Q912.82 924.72, 864 1045.54Q847.83 909.37, 984 893.19Q1035.78 824.97, 1104 876.75Q1155.16 855.91, 1176 907.07Q1265.81 876.88, 1296 966.69Q1338.18 936.88, 1368 979.06Q1463.65 954.71, 1488 1050.36z" fill="white"></path></g><defs><mask id="SvgjsMask1027"><rect width="1440" height="1000" fill="#ffffff"></rect></mask></defs></svg>